<svg xmlns:dc="http://purl.org/dc/elements/1.1/" xmlns:cc="http://creativecommons.org/ns#" xmlns:rdf="http://www.w3.org/1999/02/22-rdf-syntax-ns#" xmlns:svg="http://www.w3.org/2000/svg" xmlns="http://www.w3.org/2000/svg" xmlns:sodipodi="http://sodipodi.sourceforge.net/DTD/sodipodi-0.dtd" xmlns:inkscape="http://www.inkscape.org/namespaces/inkscape" version="1.1" x="0px" y="0px" viewBox="0 0 100 125"><g transform="translate(0,-952.36218)"><path style="font-size:medium;font-style:normal;font-variant:normal;font-weight:normal;font-stretch:normal;text-indent:0;text-align:start;text-decoration:none;line-height:normal;letter-spacing:normal;word-spacing:normal;text-transform:none;direction:ltr;block-progression:tb;writing-mode:lr-tb;text-anchor:start;baseline-shift:baseline;opacity:1;color:#000000;fill:#000000;fill-opacity:1;stroke:none;stroke-width:3.99999976000000010;marker:none;visibility:visible;display:inline;overflow:visible;enable-background:accumulate;font-family:Sans;-inkscape-font-specification:Sans" d="M 63.6875 6 A 2.0001999 2.0001999 0 0 0 62.3125 6.90625 L 28.3125 58.90625 A 2.0001999 2.0001999 0 0 0 28 60 L 28 67.4375 L 21.28125 78.96875 A 2.0001999 2.0001999 0 0 0 21 80 L 21 92 A 2.0001999 2.0001999 0 0 0 23.8125 93.8125 L 34.8125 88.8125 A 2.0001999 2.0001999 0 0 0 35.75 87.9375 L 42.5625 75.3125 L 48.28125 70.53125 A 2.0001999 2.0001999 0 0 0 48.78125 69.875 L 67.9375 30.875 A 2.0001999 2.0001999 0 1 0 64.34375 29.125 L 46.125 66.25 L 32.875 59.28125 L 59.9375 17.90625 L 74.40625 26.75 L 62.1875 52.125 A 2.0059224 2.0059224 0 1 0 65.8125 53.84375 L 78.8125 26.84375 A 2.0001999 2.0001999 0 0 0 78.03125 24.28125 L 72.78125 21.0625 L 75.78125 14.875 A 2.0001999 2.0001999 0 0 0 75.03125 12.28125 L 65.03125 6.28125 A 2.0001999 2.0001999 0 0 0 63.6875 6 z M 64.65625 10.6875 L 71.40625 14.75 L 69.34375 18.96875 L 62.125 14.5625 L 64.65625 10.6875 z M 32 63.3125 L 43.40625 69.34375 L 40.78125 71.5625 L 32 66.78125 L 32 63.3125 z M 30.75 70.6875 L 38.28125 74.8125 L 32.5625 85.4375 L 25 88.875 L 25 80.53125 L 30.75 70.6875 z M 38.8125 90 A 2.0021961 2.0021961 0 1 0 39 94 L 77 94 A 2.0001999 2.0001999 0 1 0 77 90 L 39 90 A 2.0001999 2.0001999 0 0 0 38.8125 90 z " transform="translate(0,952.36218)"/></g><text x="0" y="115" fill="#000000" font-size="5px" font-weight="bold" font-family="'Helvetica Neue', Helvetica, Arial-Unicode, Arial, Sans-serif">Created by throwaway icons</text><text x="0" y="120" fill="#000000" font-size="5px" font-weight="bold" font-family="'Helvetica Neue', Helvetica, Arial-Unicode, Arial, Sans-serif">from the Noun Project</text></svg>